<svg width="361" height="55" viewBox="0 0 361 55" fill="none" xmlns="http://www.w3.org/2000/svg">
<rect y="0.799988" width="361" height="54" rx="27" fill="#DF5942"/>
<path d="M104.412 33.552C100.884 33.552 98.13 30.762 98.13 27.252C98.13 23.742 100.884 20.952 104.412 20.952C106.518 20.952 108.534 22.068 109.434 23.958L107.292 25.164C106.698 24.12 105.762 23.454 104.304 23.454C102.288 23.454 100.83 25.056 100.83 27.252C100.83 29.448 102.27 31.05 104.304 31.05C105.762 31.05 106.734 30.384 107.292 29.34L109.434 30.546C108.534 32.436 106.518 33.552 104.412 33.552ZM113.318 33.3H110.762V28.188C110.762 25.902 112.058 24.156 114.704 24.156C115.28 24.156 115.91 24.264 116.36 24.462V26.946C115.928 26.694 115.406 26.568 114.938 26.568C113.93 26.568 113.318 27.216 113.318 28.278V33.3ZM122.027 33.534C119.255 33.534 117.167 31.608 117.167 28.764C117.167 26.19 119.039 24.066 121.793 24.066C124.619 24.066 126.257 26.154 126.257 28.584V29.34H119.633C119.813 30.528 120.731 31.32 122.009 31.32C122.981 31.32 123.791 30.852 124.205 30.024L126.167 31.014C125.393 32.616 123.917 33.534 122.027 33.534ZM119.741 27.918H123.719C123.611 27 122.855 26.298 121.775 26.298C120.659 26.298 119.921 27.018 119.741 27.918ZM132.089 33.534C129.497 33.534 127.679 31.41 127.679 28.818C127.679 26.262 129.767 24.12 132.503 24.12C135.293 24.12 137.345 26.136 137.345 28.818V33.3H134.915V32.256C134.285 33.048 133.313 33.534 132.089 33.534ZM132.503 31.14C133.817 31.14 134.789 30.096 134.789 28.836C134.789 27.576 133.817 26.532 132.503 26.532C131.189 26.532 130.235 27.576 130.235 28.836C130.235 30.096 131.189 31.14 132.503 31.14ZM144.074 33.552C141.5 33.552 140.222 32.004 140.222 29.772V26.55H138.584V24.39H140.222V22.122H142.778V24.39H145.928V26.55H142.778V29.7C142.778 30.69 143.372 31.266 144.308 31.266C144.83 31.266 145.496 31.104 145.928 30.834V33.12C145.478 33.408 144.704 33.552 144.074 33.552ZM152.086 33.534C149.314 33.534 147.226 31.608 147.226 28.764C147.226 26.19 149.098 24.066 151.852 24.066C154.678 24.066 156.316 26.154 156.316 28.584V29.34H149.692C149.872 30.528 150.79 31.32 152.068 31.32C153.04 31.32 153.85 30.852 154.264 30.024L156.226 31.014C155.452 32.616 153.976 33.534 152.086 33.534ZM149.8 27.918H153.778C153.67 27 152.914 26.298 151.834 26.298C150.718 26.298 149.98 27.018 149.8 27.918ZM167.228 33.534C164.636 33.534 162.818 31.41 162.818 28.818C162.818 26.262 164.906 24.12 167.642 24.12C170.432 24.12 172.484 26.136 172.484 28.818V33.3H170.054V32.256C169.424 33.048 168.452 33.534 167.228 33.534ZM167.642 31.14C168.956 31.14 169.928 30.096 169.928 28.836C169.928 27.576 168.956 26.532 167.642 26.532C166.328 26.532 165.374 27.576 165.374 28.836C165.374 30.096 166.328 31.14 167.642 31.14ZM179.267 26.622C177.827 26.622 177.179 27.792 177.179 29.16V33.3H174.623V28.854C174.623 26.262 176.153 24.138 179.267 24.138C182.381 24.138 183.947 26.244 183.947 28.854V33.3H181.391V29.16C181.391 27.792 180.725 26.622 179.267 26.622ZM195.124 33.534C192.532 33.534 190.714 31.41 190.714 28.818C190.714 26.262 192.802 24.12 195.538 24.12C198.328 24.12 200.38 26.136 200.38 28.818V33.3H197.95V32.256C197.32 33.048 196.348 33.534 195.124 33.534ZM195.538 31.14C196.852 31.14 197.824 30.096 197.824 28.836C197.824 27.576 196.852 26.532 195.538 26.532C194.224 26.532 193.27 27.576 193.27 28.836C193.27 30.096 194.224 31.14 195.538 31.14ZM206.857 33.534C204.175 33.552 202.069 31.41 202.069 28.836C202.069 26.244 204.175 24.12 206.857 24.138C208.567 24.156 210.151 24.93 210.961 26.658L208.855 27.81C208.459 27.036 207.739 26.55 206.857 26.55C205.579 26.55 204.625 27.576 204.625 28.836C204.625 30.096 205.579 31.122 206.857 31.122C207.739 31.122 208.459 30.636 208.855 29.862L210.961 31.014C210.151 32.742 208.567 33.516 206.857 33.534ZM216.824 33.534C214.142 33.552 212.036 31.41 212.036 28.836C212.036 26.244 214.142 24.12 216.824 24.138C218.534 24.156 220.118 24.93 220.928 26.658L218.822 27.81C218.426 27.036 217.706 26.55 216.824 26.55C215.546 26.55 214.592 27.576 214.592 28.836C214.592 30.096 215.546 31.122 216.824 31.122C217.706 31.122 218.426 30.636 218.822 29.862L220.928 31.014C220.118 32.742 218.534 33.516 216.824 33.534ZM226.827 33.534C224.091 33.534 222.003 31.41 222.003 28.818C222.003 26.244 224.109 24.12 226.827 24.12C229.581 24.12 231.669 26.262 231.669 28.818C231.669 31.41 229.563 33.534 226.827 33.534ZM226.827 31.14C228.141 31.14 229.113 30.096 229.113 28.836C229.113 27.576 228.141 26.532 226.827 26.532C225.513 26.532 224.559 27.576 224.559 28.836C224.559 30.096 225.513 31.14 226.827 31.14ZM237.761 31.068C239.075 31.068 239.741 29.898 239.741 28.512V24.39H242.297V28.818C242.297 31.428 240.749 33.534 237.761 33.534C234.791 33.534 233.243 31.428 233.243 28.818V24.39H235.799V28.53C235.799 29.898 236.447 31.068 237.761 31.068ZM248.982 26.622C247.542 26.622 246.894 27.792 246.894 29.16V33.3H244.338V28.854C244.338 26.262 245.868 24.138 248.982 24.138C252.096 24.138 253.662 26.244 253.662 28.854V33.3H251.106V29.16C251.106 27.792 250.44 26.622 248.982 26.622ZM260.389 33.552C257.815 33.552 256.537 32.004 256.537 29.772V26.55H254.899V24.39H256.537V22.122H259.093V24.39H262.243V26.55H259.093V29.7C259.093 30.69 259.687 31.266 260.623 31.266C261.145 31.266 261.811 31.104 262.243 30.834V33.12C261.793 33.408 261.019 33.552 260.389 33.552Z" fill="#FDFEF7"/>
</svg>
