<svg width="313" height="95" viewBox="0 0 313 95" fill="none" xmlns="http://www.w3.org/2000/svg">
<path d="M67.0464 47.4H50.4485C46.1844 47.4 44.5337 45.1992 44.5337 41.6687V22.3196C44.5337 18.7891 46.1844 16.5424 50.4485 16.5424H66.7713V22.5489H51.2279V28.968H65.8085V34.9744H51.2279V41.3935H67.0464V47.4ZM78.281 47.4H70.9907L76.3094 38.7801C76.9971 37.6796 77.3181 36.8543 77.3181 36.0749C77.3181 35.3412 77.043 34.6076 76.4469 33.6448L70.9907 24.7039H78.3268L82.1783 31.0771C82.5451 31.6732 82.866 32.3609 83.0494 33.0487H84.9293C85.1127 32.3609 85.4337 31.6732 85.8005 31.0771L89.6519 24.7039H96.9881L91.5318 33.6448C90.9358 34.6076 90.6607 35.3412 90.6607 36.0749C90.6607 36.8543 90.9816 37.6796 91.6694 38.7801L96.9881 47.4H89.6978L85.8005 41.1184C85.3878 40.4307 85.021 39.6512 84.7918 38.8718H83.187C82.9577 39.6512 82.5909 40.4307 82.1783 41.1184L78.281 47.4ZM107.754 57.854H101.244V35.9832C101.244 29.1514 106.471 24.062 113.532 24.062C120.547 24.062 125.82 29.4724 125.82 35.9832C125.82 43.09 120.959 48.0419 113.898 48.0419C111.606 48.0419 109.451 47.2166 107.754 45.9328V57.854ZM113.532 41.8979C116.879 41.8979 119.309 39.2386 119.309 36.029C119.309 32.8195 116.879 30.206 113.532 30.206C110.184 30.206 107.754 32.8195 107.754 36.029C107.754 39.2386 110.184 41.8979 113.532 41.8979ZM131.086 14.2499H137.597V47.4H131.086V14.2499ZM155.102 47.9961C148.132 47.9961 142.814 42.5857 142.814 35.9832C142.814 29.4265 148.178 24.0161 155.102 24.0161C162.117 24.0161 167.436 29.4724 167.436 35.9832C167.436 42.5857 162.071 47.9961 155.102 47.9961ZM155.102 41.8979C158.449 41.8979 160.925 39.2386 160.925 36.029C160.925 32.8195 158.449 30.1601 155.102 30.1601C151.755 30.1601 149.325 32.8195 149.325 36.029C149.325 39.2386 151.755 41.8979 155.102 41.8979ZM178.277 47.4H171.766V34.3784C171.766 28.5553 175.067 24.1078 181.807 24.1078C183.275 24.1078 184.879 24.3829 186.026 24.8873V31.2147C184.925 30.5728 183.595 30.2518 182.403 30.2518C179.836 30.2518 178.277 31.9024 178.277 34.6076V47.4ZM199.316 47.9961C192.713 47.9961 188.082 42.5857 188.082 35.9832C188.082 29.4724 193.401 24.0161 200.37 24.0161C207.477 24.0161 212.704 29.1514 212.704 35.9832V47.4H206.514V44.7407C204.91 46.7581 202.434 47.9961 199.316 47.9961ZM200.37 41.8979C203.717 41.8979 206.193 39.2386 206.193 36.029C206.193 32.8195 203.717 30.1601 200.37 30.1601C197.023 30.1601 194.593 32.8195 194.593 36.029C194.593 39.2386 197.023 41.8979 200.37 41.8979ZM229.296 48.0419C222.326 48.0419 217.008 42.6315 217.008 36.0749C217.008 29.0138 221.868 24.062 228.929 24.062C231.221 24.062 233.422 24.8873 235.073 26.2169L235.119 14.2499H241.63V36.0749C241.63 42.9525 236.403 48.0419 229.296 48.0419ZM229.296 41.8979C232.643 41.8979 235.119 39.2844 235.119 36.0749C235.119 32.8653 232.643 30.206 229.296 30.206C225.949 30.206 223.519 32.8653 223.519 36.0749C223.519 39.2844 225.949 41.8979 229.296 41.8979ZM258.221 47.9961C251.252 47.9961 245.933 42.5857 245.933 35.9832C245.933 29.4265 251.298 24.0161 258.221 24.0161C265.236 24.0161 270.555 29.4724 270.555 35.9832C270.555 42.5857 265.19 47.9961 258.221 47.9961ZM258.221 41.8979C261.568 41.8979 264.044 39.2386 264.044 36.029C264.044 32.8195 261.568 30.1601 258.221 30.1601C254.874 30.1601 252.444 32.8195 252.444 36.029C252.444 39.2386 254.874 41.8979 258.221 41.8979Z" fill="#4D4A57"/>
<path d="M53.4507 88.608C51.5147 88.608 49.9627 87.792 49.2747 86.256L51.2267 85.28C51.5787 86.064 52.3307 86.464 53.4507 86.464C54.4587 86.464 55.2267 86.048 55.2267 85.28C55.2267 84.384 54.3787 84.24 53.2587 84.048C51.6427 83.776 49.4507 83.2 49.4507 80.768C49.4507 78.88 51.1467 77.44 53.3707 77.44C55.1467 77.44 56.6827 78.256 57.3707 79.792L55.4187 80.768C55.0667 80.08 54.3627 79.6 53.2747 79.6C52.3947 79.6 51.7867 80.016 51.7867 80.672C51.7867 81.536 52.6827 81.76 53.8507 81.968C55.4507 82.24 57.5627 82.816 57.5627 85.264C57.5627 87.2 55.7387 88.608 53.4507 88.608ZM61.8947 88.624C61.0147 88.624 60.1187 88.08 59.8467 86.944L58.3267 80.48H60.4547L61.8307 86.512C61.8307 86.544 61.8147 86.544 61.8787 86.544C61.9267 86.544 61.9107 86.528 61.9107 86.528L63.0787 81.936C63.3827 80.8 64.0387 80.24 65.0147 80.24C66.0067 80.24 66.6467 80.8 66.9187 81.904L68.0867 86.528C68.0867 86.544 68.0867 86.56 68.1347 86.56C68.1827 86.56 68.1827 86.544 68.1827 86.512L69.5107 80.48H71.6067L70.1507 86.944C69.8947 88.096 68.9827 88.624 68.1187 88.624C67.1907 88.624 66.5027 88.064 66.2147 86.944L65.0307 82.224C65.0307 82.224 65.0467 82.208 64.9987 82.208C64.9667 82.208 64.9827 82.224 64.9827 82.224L63.7987 86.944C63.5267 88.064 62.8227 88.624 61.8947 88.624ZM74.2988 79.296C73.5308 79.296 72.8908 78.672 72.8908 77.888C72.8908 77.12 73.5308 76.48 74.2988 76.48C75.0668 76.48 75.6908 77.12 75.6908 77.888C75.6908 78.672 75.0668 79.296 74.2988 79.296ZM73.1628 80.48H75.4348V88.4H73.1628V80.48ZM81.7353 88.624C79.4473 88.624 78.3113 87.248 78.3113 85.264V82.4H76.8553V80.48H78.3113V78.464H80.5833V80.48H83.3833V82.4H80.5833V85.2C80.5833 86.08 81.1113 86.592 81.9433 86.592C82.4073 86.592 82.9993 86.448 83.3833 86.208V88.24C82.9833 88.496 82.2953 88.624 81.7353 88.624ZM88.7925 88.608C86.4085 88.624 84.5365 86.72 84.5365 84.432C84.5365 82.128 86.4085 80.24 88.7925 80.256C90.3125 80.272 91.7205 80.96 92.4405 82.496L90.5685 83.52C90.2165 82.832 89.5765 82.4 88.7925 82.4C87.6565 82.4 86.8085 83.312 86.8085 84.432C86.8085 85.552 87.6565 86.464 88.7925 86.464C89.5765 86.464 90.2165 86.032 90.5685 85.344L92.4405 86.368C91.7205 87.904 90.3125 88.592 88.7925 88.608ZM96.3879 88.4H94.1159V76.832H96.3879V80.96C96.9799 80.528 97.7639 80.256 98.6279 80.256C101.044 80.256 102.308 81.792 102.308 84.288V88.4L100.036 88.384V84.512C100.036 83.392 99.4279 82.4 98.2759 82.4C97.1399 82.4 96.3879 83.296 96.3879 84.544V88.4ZM111.869 88.4H109.597V82.4H108.189V80.48H109.597V80.064C109.597 78.16 110.733 76.672 113.053 76.672C113.581 76.672 114.125 76.768 114.525 76.944V79.04C114.157 78.816 113.677 78.704 113.261 78.704C112.397 78.704 111.869 79.136 111.869 80.032V80.48H114.397V82.4H111.869V88.4ZM117.787 88.4H115.515V83.856C115.515 81.824 116.667 80.272 119.019 80.272C119.531 80.272 120.091 80.368 120.491 80.544V82.752C120.107 82.528 119.643 82.416 119.227 82.416C118.331 82.416 117.787 82.992 117.787 83.936V88.4ZM125.496 88.608C123.064 88.608 121.208 86.72 121.208 84.416C121.208 82.128 123.08 80.24 125.496 80.24C127.944 80.24 129.8 82.144 129.8 84.416C129.8 86.72 127.928 88.608 125.496 88.608ZM125.496 86.48C126.664 86.48 127.528 85.552 127.528 84.432C127.528 83.312 126.664 82.384 125.496 82.384C124.328 82.384 123.48 83.312 123.48 84.432C123.48 85.552 124.328 86.48 125.496 86.48ZM141.296 80.192C143.872 80.192 145.184 82.048 145.184 84.256V88.4H142.912V84.64C142.912 83.424 142.384 82.4 141.136 82.4C139.904 82.4 139.376 83.408 139.376 84.608V88.4H137.104V84.624C137.104 83.408 136.576 82.4 135.344 82.4C134.08 82.4 133.584 83.424 133.584 84.624V88.4H131.312V84.256C131.312 82.048 132.608 80.192 135.168 80.192C136.688 80.192 137.792 80.864 138.256 81.952C138.752 80.864 139.872 80.192 141.296 80.192ZM153.144 87.088L150.728 80.48H153.144L155.224 86.384L157.288 80.48H159.704L157.256 87.088C156.872 88.112 156.184 88.624 155.208 88.624C154.248 88.624 153.512 88.112 153.144 87.088ZM155.208 86.448C155.224 86.448 155.224 86.448 155.224 86.448H155.208ZM162.205 79.296C161.437 79.296 160.797 78.672 160.797 77.888C160.797 77.12 161.437 76.48 162.205 76.48C162.973 76.48 163.597 77.12 163.597 77.888C163.597 78.672 162.973 79.296 162.205 79.296ZM161.069 80.48H163.341V88.4H161.069V80.48ZM168.666 88.624C167.018 88.624 165.866 88.016 165.21 86.832L166.89 85.888C167.226 86.528 167.754 86.8 168.554 86.8C169.29 86.8 169.754 86.512 169.754 86.048C169.754 84.768 165.402 85.872 165.402 82.816C165.402 81.392 166.65 80.272 168.602 80.272C170.298 80.272 171.322 81.072 171.802 81.984L170.122 82.928C169.866 82.352 169.29 82.08 168.65 82.08C168.09 82.08 167.674 82.352 167.674 82.768C167.674 84.048 172.026 83.024 172.026 86C172.026 87.6 170.474 88.624 168.666 88.624ZM175.049 79.296C174.281 79.296 173.641 78.672 173.641 77.888C173.641 77.12 174.281 76.48 175.049 76.48C175.817 76.48 176.441 77.12 176.441 77.888C176.441 78.672 175.817 79.296 175.049 79.296ZM173.913 80.48H176.185V88.4H173.913V80.48ZM182.485 88.624C180.197 88.624 179.061 87.248 179.061 85.264V82.4H177.605V80.48H179.061V78.464H181.333V80.48H184.133V82.4H181.333V85.2C181.333 86.08 181.861 86.592 182.693 86.592C183.157 86.592 183.749 86.448 184.133 86.208V88.24C183.733 88.496 183.045 88.624 182.485 88.624ZM189.575 88.608C187.143 88.608 185.287 86.72 185.287 84.416C185.287 82.128 187.159 80.24 189.575 80.24C192.023 80.24 193.879 82.144 193.879 84.416C193.879 86.72 192.007 88.608 189.575 88.608ZM189.575 86.48C190.743 86.48 191.607 85.552 191.607 84.432C191.607 83.312 190.743 82.384 189.575 82.384C188.407 82.384 187.559 83.312 187.559 84.432C187.559 85.552 188.407 86.48 189.575 86.48ZM197.662 88.4H195.39V83.856C195.39 81.824 196.542 80.272 198.894 80.272C199.406 80.272 199.966 80.368 200.366 80.544V82.752C199.982 82.528 199.518 82.416 199.102 82.416C198.206 82.416 197.662 82.992 197.662 83.936V88.4ZM209.704 88.624C207.416 88.624 206.28 87.248 206.28 85.264V82.4H204.824V80.48H206.28V78.464H208.552V80.48H211.352V82.4H208.552V85.2C208.552 86.08 209.08 86.592 209.912 86.592C210.376 86.592 210.968 86.448 211.352 86.208V88.24C210.952 88.496 210.264 88.624 209.704 88.624ZM216.793 88.608C214.361 88.608 212.505 86.72 212.505 84.416C212.505 82.128 214.377 80.24 216.793 80.24C219.241 80.24 221.097 82.144 221.097 84.416C221.097 86.72 219.225 88.608 216.793 88.608ZM216.793 86.48C217.961 86.48 218.825 85.552 218.825 84.432C218.825 83.312 217.961 82.384 216.793 82.384C215.625 82.384 214.777 83.312 214.777 84.432C214.777 85.552 215.625 86.48 216.793 86.48ZM227.444 76.832H229.716V88.4H227.444V76.832ZM235.825 88.608C233.393 88.608 231.537 86.72 231.537 84.416C231.537 82.128 233.409 80.24 235.825 80.24C238.273 80.24 240.129 82.144 240.129 84.416C240.129 86.72 238.257 88.608 235.825 88.608ZM235.825 86.48C236.993 86.48 237.857 85.552 237.857 84.432C237.857 83.312 236.993 82.384 235.825 82.384C234.657 82.384 233.809 83.312 233.809 84.432C233.809 85.552 234.657 86.48 235.825 86.48ZM245.496 88.608C243.112 88.624 241.24 86.72 241.24 84.432C241.24 82.128 243.112 80.24 245.496 80.256C247.016 80.272 248.424 80.96 249.144 82.496L247.272 83.52C246.92 82.832 246.28 82.4 245.496 82.4C244.36 82.4 243.512 83.312 243.512 84.432C243.512 85.552 244.36 86.464 245.496 86.464C246.28 86.464 246.92 86.032 247.272 85.344L249.144 86.368C248.424 87.904 247.016 88.592 245.496 88.608ZM254.019 88.608C251.715 88.608 250.099 86.72 250.099 84.416C250.099 82.144 251.955 80.24 254.387 80.24C256.867 80.24 258.691 82.032 258.691 84.416V88.4H256.531V87.472C255.971 88.176 255.107 88.608 254.019 88.608ZM254.387 86.48C255.555 86.48 256.419 85.552 256.419 84.432C256.419 83.312 255.555 82.384 254.387 82.384C253.219 82.384 252.371 83.312 252.371 84.432C252.371 85.552 253.219 86.48 254.387 86.48ZM260.913 76.832H263.185V88.4H260.913V76.832Z" fill="#A1A1A1"/>
</svg>
