<svg width="361" height="55" viewBox="0 0 361 55" fill="none" xmlns="http://www.w3.org/2000/svg">
<path d="M157.248 20.986V30.67H162.9V33.1H156.942C155.268 33.1 154.62 32.236 154.62 30.85V20.986H157.248ZM168.79 33.334C166.054 33.334 163.966 31.21 163.966 28.618C163.966 26.044 166.072 23.92 168.79 23.92C171.544 23.92 173.632 26.062 173.632 28.618C173.632 31.21 171.526 33.334 168.79 33.334ZM168.79 30.94C170.104 30.94 171.076 29.896 171.076 28.636C171.076 27.376 170.104 26.332 168.79 26.332C167.476 26.332 166.522 27.376 166.522 28.636C166.522 29.896 167.476 30.94 168.79 30.94ZM179.49 37.438C177.402 37.438 175.8 36.52 174.99 34.864L177.114 33.712C177.51 34.486 178.248 35.098 179.454 35.098C180.966 35.098 181.992 34.036 181.992 32.29V32.128C181.506 32.74 180.642 33.208 179.382 33.208C176.88 33.208 174.882 31.264 174.882 28.618C174.882 26.044 176.97 23.938 179.706 23.938C182.496 23.938 184.548 25.936 184.548 28.618V32.218C184.548 35.386 182.388 37.438 179.49 37.438ZM179.67 30.796C180.948 30.796 181.956 29.842 181.956 28.564C181.956 27.286 180.948 26.35 179.67 26.35C178.41 26.35 177.402 27.286 177.402 28.564C177.402 29.842 178.41 30.796 179.67 30.796ZM193.406 22.858C192.542 22.858 191.822 22.156 191.822 21.274C191.822 20.41 192.542 19.69 193.406 19.69C194.27 19.69 194.972 20.41 194.972 21.274C194.972 22.156 194.27 22.858 193.406 22.858ZM192.128 24.19H194.684V33.1H192.128V24.19ZM201.826 26.422C200.386 26.422 199.738 27.592 199.738 28.96V33.1H197.182V28.654C197.182 26.062 198.712 23.938 201.826 23.938C204.94 23.938 206.506 26.044 206.506 28.654V33.1H203.95V28.96C203.95 27.592 203.284 26.422 201.826 26.422Z" fill="#4D4A57"/>
<rect x="0.43125" y="1.03123" width="360.138" height="53.1375" rx="26.5688" stroke="#C3D0C8" stroke-width="0.8625"/>
</svg>
